<svg width="482" height="94" viewBox="0 0 482 94" fill="none" xmlns="http://www.w3.org/2000/svg">
<path d="M1.5 61.3281V14.3594C1.5 12.7344 2.79688 11.3906 5.39062 10.3281C8.01562 9.23438 11.0938 8.6875 14.625 8.6875C16.625 8.6875 18.5 8.9375 20.25 9.4375C22.0312 9.90625 23.3906 10.5156 24.3281 11.2656C25.6094 12.8906 26.7812 14.5469 27.8438 16.2344C28.9062 17.9219 31.2969 21.8594 35.0156 28.0469C35.3594 28.0469 35.6719 27.9375 35.9531 27.7188C36.2344 27.5 36.375 27.1719 36.375 26.7344C36.375 26.2656 35.9844 25.375 35.2031 24.0625L30.1406 15.3438V12.7656C31.7344 11.4531 33.6719 10.4375 35.9531 9.71875C38.2344 9 40.5938 8.64062 43.0312 8.64062C47 8.64062 50.2031 9.35937 52.6406 10.7969C55.4844 12.5156 56.9062 15.2031 56.9062 18.8594V63.25C56.9062 65.9375 55.625 67.8906 53.0625 69.1094C50.875 70.2031 47.9531 70.75 44.2969 70.75C42.2656 70.75 40.2812 70.5312 38.3438 70.0938C36.4375 69.6562 34.9375 69.0938 33.8438 68.4062C31.625 65.5625 29.4219 62.375 27.2344 58.8438L22.4531 50.875C21.5469 51 21.0938 51.4844 21.0938 52.3281C21.0938 52.8594 21.5469 53.875 22.4531 55.375L28.3125 64.8438V67.3281C24.6875 69.6719 20.5938 70.8438 16.0312 70.8438C11.5 70.8438 7.9375 70.0156 5.34375 68.3594C2.78125 66.7031 1.5 64.3594 1.5 61.3281ZM91.6369 71.4531C82.9806 71.4531 76.1525 69.0469 71.1525 64.2344C66.0275 59.3906 63.465 52.7656 63.465 44.3594C63.465 35.9219 66.1056 29.2344 71.3869 24.2969C76.2619 19.7031 82.4338 17.4062 89.9025 17.4062C97.3713 17.4062 103.356 19.4688 107.856 23.5938C112.387 27.6875 114.653 32.7344 114.653 38.7344C114.653 44.0781 112.793 48.1094 109.074 50.8281C105.637 53.3906 100.949 54.6719 95.0119 54.6719C90.5744 54.6719 86.8244 53.75 83.7619 51.9062C83.5119 52.0938 83.3869 52.4375 83.3869 52.9375C83.3869 53.875 84.6213 54.7344 87.09 55.5156C89.5588 56.3594 92.3556 56.7812 95.4806 56.7812C98.6369 56.7812 101.496 56.3906 104.059 55.6094C106.653 54.7969 108.731 53.8438 110.293 52.75C111.043 53.4062 111.637 54.625 112.074 56.4062C112.543 58.1562 112.778 59.7656 112.778 61.2344C112.778 62.6719 112.637 63.9531 112.356 65.0781C109.918 67.1406 107.418 68.6094 104.856 69.4844C101.231 70.7969 96.8244 71.4531 91.6369 71.4531ZM91.0275 39.7188C92.59 39.7188 93.3713 39.125 93.3713 37.9375C93.3713 36.8125 92.5431 36.25 90.8869 36.25C89.2306 36.25 88.2775 37.1406 88.0275 38.9219C88.9025 39.4531 89.9025 39.7188 91.0275 39.7188ZM145.586 43.8906V52.0938C145.805 52.3125 146.164 52.4219 146.664 52.4219C147.164 52.4219 147.524 52.25 147.743 51.9062C147.961 51.5625 148.071 50.9688 148.071 50.125V43.4219C148.071 40.4219 147.946 38.4375 147.696 37.4688C147.446 36.4688 146.977 35.9688 146.289 35.9688C145.852 35.9688 145.477 36.125 145.164 36.4375C145.446 39.5312 145.586 42.0156 145.586 43.8906ZM128.055 64.6562C122.93 59.7188 120.368 53.0312 120.368 44.5938C120.368 36.125 122.774 29.4531 127.586 24.5781C132.43 19.6719 138.774 17.2188 146.618 17.2188C154.461 17.2188 160.805 19.7656 165.649 24.8594C170.461 29.9531 172.868 36.5938 172.868 44.7812C172.868 52.9375 170.539 59.4219 165.883 64.2344C161.258 69.0469 154.961 71.4531 146.993 71.4531C139.024 71.4531 132.711 69.1875 128.055 64.6562ZM204.223 33.25C203.411 33.5 203.004 33.9844 203.004 34.7031V34.9375C203.004 35.0938 203.02 35.1875 203.051 35.2188C203.395 35.1875 203.848 35.1719 204.411 35.1719H205.536C209.098 35.1719 212.426 35.7188 215.52 36.8125C218.645 37.875 221.192 39.5938 223.161 41.9688C225.348 44.6562 226.442 48.0469 226.442 52.1406C226.442 58.5156 224.239 63.3281 219.833 66.5781C215.426 69.8281 209.536 71.4531 202.161 71.4531C194.786 71.4531 189.004 70.2344 184.817 67.7969C180.661 65.3594 178.583 61.7812 178.583 57.0625C178.583 55.3125 178.958 53.7188 179.708 52.2812C180.458 50.8125 181.301 49.7812 182.239 49.1875C183.958 50.625 186.442 51.875 189.692 52.9375C192.973 53.9688 196.442 54.4844 200.098 54.4844C201.567 54.4844 202.301 54.0781 202.301 53.2656C202.301 52.8906 202.254 52.5781 202.161 52.3281C201.942 52.3594 201.676 52.375 201.364 52.375H200.848C194.223 52.375 188.926 51.0625 184.958 48.4375C180.458 45.4688 178.208 41.2812 178.208 35.875C178.208 30.4688 180.223 26.0938 184.254 22.75C188.723 19.0625 194.864 17.2188 202.676 17.2188C206.52 17.2188 210.098 17.625 213.411 18.4375C216.754 19.25 219.614 20.3281 221.989 21.6719C222.583 22.9531 222.879 24.8438 222.879 27.3438C222.879 31.1562 221.833 34.0781 219.739 36.1094C218.145 35.2344 216.192 34.5156 213.879 33.9531C211.598 33.3594 209.536 33.0625 207.692 33.0625C205.848 33.0625 204.692 33.125 204.223 33.25ZM257.048 44.6875V50.9688C257.266 51.1875 257.626 51.2969 258.126 51.2969C258.626 51.2969 258.985 51.125 259.204 50.7812C259.423 50.4375 259.532 49.8438 259.532 49V44.2188C259.532 41.2188 259.407 39.2344 259.157 38.2656C258.907 37.2656 258.438 36.7656 257.751 36.7656C257.313 36.7656 256.938 36.9219 256.626 37.2344C256.907 40.3281 257.048 42.8125 257.048 44.6875ZM242.094 24.4844C242.094 25.4219 242.641 25.8906 243.735 25.8906C245.61 22.9531 247.813 20.7812 250.344 19.375C252.876 17.9375 255.923 17.2188 259.485 17.2188C263.048 17.2188 266.298 17.7812 269.235 18.9062C273.266 20.5 276.454 23.0625 278.798 26.5938C281.735 31.0625 283.204 36.9219 283.204 44.1719C283.204 52.3281 281.016 58.6719 276.641 63.2031C272.298 67.7031 266.266 69.9531 258.548 69.9531C254.235 69.9531 250.876 69.4219 248.469 68.3594C248.251 68.4844 248.141 68.75 248.141 69.1562C248.141 70.0938 248.86 70.7656 250.298 71.1719C251.766 71.5781 254.282 71.875 257.844 72.0625V84.5312C254.626 85.9688 251.094 86.6875 247.251 86.6875C242.719 86.6875 239.298 85.8594 236.985 84.2031C234.36 82.4219 233.048 79.6875 233.048 76V38.2656C231.204 35.6719 230.282 32.4531 230.282 28.6094C230.282 27.0469 230.532 25.3438 231.032 23.5C231.532 21.6563 232.204 20.0781 233.048 18.7656H239.704C242.423 18.7656 244.501 19.1406 245.938 19.8906C243.376 21.7969 242.094 23.3281 242.094 24.4844ZM303.403 70.6094C299.684 70.6094 296.716 69.9375 294.497 68.5938C292.028 67.1875 290.794 65.1094 290.794 62.3594V38.2188C288.95 35.625 288.028 32.4375 288.028 28.6562C288.028 24.8438 288.95 21.5469 290.794 18.7656H297.966C301.653 18.7656 304.294 19.9531 305.888 22.3281C305.106 23.2031 304.419 24.3125 303.825 25.6562C303.231 27 302.934 27.9688 302.934 28.5625C302.934 29.125 303.075 29.5469 303.356 29.8281C303.669 30.1094 304.106 30.25 304.669 30.25C305.763 25.9062 307.841 22.7188 310.903 20.6875C313.434 18.9687 316.559 18.1094 320.278 18.1094C324.903 18.1094 328.528 19.0938 331.153 21.0625C332.091 23.5625 332.559 26.625 332.559 30.25C332.559 33.8438 331.841 37.1094 330.403 40.0469C329.341 40.6094 327.872 41.0938 325.997 41.5C324.122 41.875 322.231 42.0625 320.325 42.0625C318.419 42.0625 316.7 41.9375 315.169 41.6875C313.669 41.4062 312.575 41.1562 311.888 40.9375C311.638 41.1875 311.513 41.5469 311.513 42.0156C311.513 42.4844 311.809 42.8438 312.403 43.0938C313.028 43.3125 314.059 43.5625 315.497 43.8438V67.375C312.091 69.5312 308.059 70.6094 303.403 70.6094ZM362.603 27.8125V46.375C362.603 51.0312 363.728 54.0625 365.978 55.4688C366.009 55.625 366.024 55.9219 366.024 56.3594V57.2031C366.024 61.7969 364.774 65.25 362.274 67.5625C359.962 69.75 356.868 70.8438 352.993 70.8438C349.149 70.8438 345.978 69.75 343.478 67.5625C340.321 64.7812 338.743 60.7188 338.743 55.375V24.9062C339.306 24.5 339.915 24.1719 340.571 23.9219C341.228 23.6719 341.915 23.3594 342.634 22.9844C341.29 22.2969 340.071 21.1094 338.978 19.4219C337.884 17.7031 337.337 15.7031 337.337 13.4219C337.337 9.48438 338.634 6.26562 341.228 3.76562C343.821 1.26563 346.993 0.015625 350.743 0.015625C354.524 0.015625 357.681 1.29687 360.212 3.85938C362.774 6.39062 364.056 9.57812 364.056 13.4219C364.056 16.5156 363.087 19.2344 361.149 21.5781C359.212 23.8906 356.853 25.3438 354.071 25.9375C354.071 27.125 354.524 27.7188 355.431 27.7188C357.024 27.7188 358.649 27.0938 360.306 25.8438C361.556 26.8125 362.321 27.4688 362.603 27.8125ZM421.568 46.7969C421.568 49.0469 421.818 50.8594 422.318 52.2344C422.818 53.6094 423.693 54.6875 424.943 55.4688C424.974 55.625 424.989 55.9219 424.989 56.3594V57.2031C424.989 61.5156 423.739 64.875 421.239 67.2812C418.771 69.6562 415.568 70.8438 411.63 70.8438C407.724 70.8438 404.552 69.7344 402.114 67.5156C399.271 64.9844 397.849 61.1406 397.849 55.9844C397.849 53.7969 397.943 51.875 398.13 50.2188C398.349 48.5312 398.489 47.3281 398.552 46.6094C398.646 45.8906 398.739 45.2188 398.833 44.5938C398.927 43.9688 398.974 43.0469 398.974 41.8281C398.974 40.6094 398.802 39.7344 398.458 39.2031C398.146 38.6719 397.693 38.4062 397.099 38.4062C396.536 38.4062 396.036 38.5312 395.599 38.7812L396.208 46.4219C395.646 49.5781 395.364 52.9219 395.364 56.4531C395.364 59.9844 396.161 63.2031 397.755 66.1094C394.693 69.2656 390.396 70.8438 384.864 70.8438C381.708 70.8438 378.974 70.0156 376.661 68.3594C373.974 66.4844 372.63 64 372.63 60.9062V38.2188C370.786 35.625 369.864 32.4375 369.864 28.6562C369.864 24.8438 370.786 21.5469 372.63 18.7656H380.974C383.193 18.7656 385.083 19.5938 386.646 21.25C385.271 22.5312 384.583 23.5938 384.583 24.4375C384.583 25.4062 385.13 25.8906 386.224 25.8906C387.599 23.5156 389.693 21.5469 392.505 19.9844C395.349 18.4219 398.568 17.6406 402.161 17.6406C407.568 17.6406 411.958 18.9687 415.333 21.625C419.583 24.9688 421.708 30.1562 421.708 37.1875L421.568 46.7969ZM456.767 36.3906C456.767 35.2656 456.345 34.7031 455.501 34.7031C454.72 34.7031 454.329 35.1719 454.329 36.1094V40.9375C454.579 41.1562 454.954 41.2656 455.454 41.2656C455.954 41.2656 456.298 41.0781 456.486 40.7031C456.673 40.3281 456.767 39.6406 456.767 38.6406V36.3906ZM458.501 55.375C456.501 55.375 454.798 55.2344 453.392 54.9531C453.298 55.2344 453.251 55.5 453.251 55.75C453.251 56.4375 453.736 56.9062 454.704 57.1562C455.704 57.375 456.97 57.4844 458.501 57.4844C463.376 57.4844 467.533 56.7656 470.97 55.3281C474.345 56.2031 476.97 58.1094 478.845 61.0469C480.376 63.4531 481.142 66.2812 481.142 69.5312C481.142 75.3125 478.689 79.8125 473.783 83.0312C468.876 86.25 462.548 87.8594 454.798 87.8594C447.079 87.8594 441.111 86.4844 436.892 83.7344C432.986 81.2344 431.033 77.9844 431.033 73.9844C431.033 72.4531 431.392 70.9844 432.111 69.5781C432.829 68.1406 433.658 67.1562 434.595 66.625C436.158 67.9375 438.454 69 441.486 69.8125C444.548 70.625 447.689 71.0312 450.908 71.0312C454.126 71.0312 456.189 70.9062 457.095 70.6562C458.033 70.4062 458.501 69.9688 458.501 69.3438C458.501 69.0312 458.408 68.7188 458.22 68.4062C456.658 68.75 454.704 68.9219 452.361 68.9219C446.329 68.9219 441.595 68.0625 438.158 66.3438C433.97 64.2812 431.876 61.1719 431.876 57.0156C431.876 55.3906 432.204 53.8906 432.861 52.5156C433.517 51.1094 434.486 50.0625 435.767 49.375C434.048 48.3125 432.579 46.7031 431.361 44.5469C430.173 42.3906 429.579 39.7344 429.579 36.5781C429.579 30.5781 431.829 25.8438 436.329 22.375C440.829 18.9062 446.673 17.1719 453.861 17.1719C457.329 17.1719 460.673 17.75 463.892 18.9062V15.625C465.736 14.9063 468.173 14.5469 471.204 14.5469C474.267 14.5469 476.595 15.0625 478.189 16.0938C480.126 17.3438 481.095 19.5469 481.095 22.7031C481.095 24.4531 480.908 25.8594 480.533 26.9219C480.189 27.9844 479.673 29.0938 478.986 30.25C479.798 32.3125 480.204 34.875 480.204 37.9375C480.204 43.4688 478.236 47.7656 474.298 50.8281C470.392 53.8594 465.126 55.375 458.501 55.375Z" fill="white"/>
<path d="M167.419 54.3934C166.363 53.2045 167.049 51.3178 168.623 51.0862L187.784 48.2657C189.283 48.0451 190.473 49.5052 189.955 50.9284L183.659 68.2264C183.141 69.6496 181.291 70.003 180.285 68.8709L167.419 54.3934Z" fill="white"/>
<path d="M130.149 9.35557C130.517 7.80821 132.457 7.28856 133.549 8.44467L146.85 22.5232C147.89 23.6241 147.377 25.4366 145.914 25.8286L128.133 30.593C126.67 30.9849 125.319 29.6719 125.67 28.1985L130.149 9.35557Z" fill="white"/>
<path d="M158.486 8.44456C159.579 7.28845 161.518 7.80811 161.886 9.35547L166.366 28.1984C166.716 29.6718 165.365 30.9848 163.902 30.5928L146.121 25.8285C144.658 25.4365 144.145 23.624 145.185 22.5231L158.486 8.44456Z" fill="white"/>
</svg>
