<svg width="482" height="94" viewBox="0 0 482 94" fill="none" xmlns="http://www.w3.org/2000/svg">
<g clip-path="url(#clip0_1066_127)">
<path d="M29.9931 36.6719C30.1181 36.7656 30.4775 36.8125 31.0713 36.8125C31.665 36.8125 32.1181 36.5781 32.4306 36.1094C32.7431 35.6406 32.8994 34.875 32.8994 33.8125V32.125C32.8994 31 32.7588 30.2031 32.4775 29.7344C32.2275 29.2344 31.79 28.9844 31.165 28.9844C30.5713 28.9844 30.165 29.0469 29.9463 29.1719C29.9775 29.3281 29.9931 29.5938 29.9931 29.9688V36.6719ZM54.1806 47.3594L62.29 55.6562C61.7275 60.5312 60.1806 64.2812 57.6494 66.9062C55.1494 69.5312 51.6806 70.8438 47.2431 70.8438C43.8994 70.8438 40.9931 70.0469 38.5244 68.4531C35.3681 66.4531 33.0088 63.2656 31.4463 58.8906L29.7588 54.2969C28.4463 54.2656 26.79 54.0938 24.79 53.7812C24.54 54.0312 24.415 54.375 24.415 54.8125C24.415 55.6562 25.6806 56.1562 28.2119 56.3125L30.8838 63.0625V67.0469C27.29 69.5781 22.6806 70.8438 17.0556 70.8438C13.0244 70.8438 9.80563 70.0156 7.39938 68.3594C4.99313 66.7031 3.79001 64.2969 3.79001 61.1406V16.6094C3.79001 15.2344 5.05563 13.9062 7.58688 12.625C10.1181 11.3125 13.4306 10.2656 17.5244 9.48438C21.6181 8.67188 25.7119 8.26562 29.8056 8.26562C39.1806 8.26562 46.5088 10.1875 51.79 14.0312C57.3525 18.0625 60.1338 23.7344 60.1338 31.0469C60.1338 35.2344 58.9463 38.8281 56.5713 41.8281C54.2275 44.7969 51.2588 46.8594 47.665 48.0156C47.665 49.0156 48.2588 49.5156 49.4463 49.5156C50.665 49.5156 52.2431 48.7969 54.1806 47.3594ZM117.889 46.7969C117.889 49.0469 118.139 50.8594 118.639 52.2344C119.139 53.6094 120.014 54.6875 121.264 55.4688C121.296 55.625 121.311 55.9219 121.311 56.3594V57.2031C121.311 61.6406 119.968 65.0938 117.28 67.5625C114.905 69.75 111.968 70.8438 108.468 70.8438C106.093 70.8438 103.921 70.2812 101.952 69.1562C99.9831 68.0312 98.5769 66.4062 97.7331 64.2812C96.6706 64.2812 96.1394 64.7969 96.1394 65.8281C96.1394 66.7031 96.6863 67.6875 97.78 68.7812C95.7488 70.1562 92.6863 70.8438 88.5925 70.8438C82.8113 70.8438 78.1863 69.2812 74.7175 66.1562C71.28 63 69.5613 58.6094 69.5613 52.9844C69.5613 47.3281 71.3894 42.9531 75.0456 39.8594C78.3894 37.0781 82.7175 35.6875 88.03 35.6875C89.8425 35.6875 91.5925 35.8125 93.28 36.0625C94.405 36.2812 95.0144 36.4062 95.1081 36.4375C95.2019 36.125 95.2488 35.8594 95.2488 35.6406C95.2488 34.8281 94.5613 34.2812 93.1863 34C91.8113 33.7188 90.0144 33.5781 87.7956 33.5781C83.0769 33.5781 79.0456 34.5312 75.7019 36.4375C74.1706 33.8438 73.405 30.5625 73.405 26.5938C73.405 24.3438 73.6863 22.6719 74.2488 21.5781C76.4988 20.5469 79.3581 19.6406 82.8269 18.8594C86.2956 18.0469 89.9519 17.6406 93.7956 17.6406C101.733 17.6406 107.733 19.375 111.796 22.8438C115.858 26.3125 117.889 31.2344 117.889 37.6094V46.7969ZM93.5613 49.0938C92.2488 49.0938 91.5925 49.6875 91.5925 50.875C91.5925 52 92.3581 52.5625 93.8894 52.5625C94.9519 52.5625 95.7331 52.3125 96.2331 51.8125C96.7331 51.2812 96.9831 50.375 96.9831 49.0938C96.9831 49.0938 95.8425 49.0938 93.5613 49.0938ZM153.333 27.8125V46.375C153.333 51.0312 154.458 54.0625 156.708 55.4688C156.739 55.625 156.754 55.9219 156.754 56.3594V57.2031C156.754 61.7969 155.504 65.25 153.004 67.5625C150.692 69.75 147.598 70.8438 143.723 70.8438C139.879 70.8438 136.708 69.75 134.208 67.5625C131.051 64.7812 129.473 60.7188 129.473 55.375V24.9062C130.036 24.5 130.645 24.1719 131.301 23.9219C131.958 23.6719 132.645 23.3594 133.364 22.9844C132.02 22.2969 130.801 21.1094 129.708 19.4219C128.614 17.7031 128.067 15.7031 128.067 13.4219C128.067 9.48438 129.364 6.26562 131.958 3.76562C134.551 1.26563 137.723 0.015625 141.473 0.015625C145.254 0.015625 148.411 1.29687 150.942 3.85938C153.504 6.39062 154.786 9.57812 154.786 13.4219C154.786 16.5156 153.817 19.2344 151.879 21.5781C149.942 23.8906 147.583 25.3438 144.801 25.9375C144.801 27.125 145.254 27.7188 146.161 27.7188C147.754 27.7188 149.379 27.0938 151.036 25.8438C152.286 26.8125 153.051 27.4688 153.333 27.8125ZM214.698 46.7969C214.698 49.0469 214.948 50.8594 215.448 52.2344C215.948 53.6094 216.823 54.6875 218.073 55.4688C218.104 55.625 218.119 55.9219 218.119 56.3594V57.2031C218.119 61.5156 216.869 64.875 214.369 67.2812C211.901 69.6562 208.698 70.8438 204.76 70.8438C200.854 70.8438 197.682 69.7344 195.244 67.5156C192.401 64.9844 190.979 61.1406 190.979 55.9844C190.979 53.7969 191.073 51.875 191.26 50.2188C191.479 48.5312 191.619 47.3281 191.682 46.6094C191.776 45.8906 191.869 45.2188 191.963 44.5938C192.057 43.9688 192.104 43.0469 192.104 41.8281C192.104 40.6094 191.932 39.7344 191.588 39.2031C191.276 38.6719 190.823 38.4062 190.229 38.4062C189.666 38.4062 189.166 38.5312 188.729 38.7812L189.338 46.4219C188.776 49.5781 188.494 52.9219 188.494 56.4531C188.494 59.9844 189.291 63.2031 190.885 66.1094C187.823 69.2656 183.526 70.8438 177.994 70.8438C174.838 70.8438 172.104 70.0156 169.791 68.3594C167.104 66.4844 165.76 64 165.76 60.9062V38.2188C163.916 35.625 162.994 32.4375 162.994 28.6562C162.994 24.8438 163.916 21.5469 165.76 18.7656H174.104C176.323 18.7656 178.213 19.5938 179.776 21.25C178.401 22.5312 177.713 23.5938 177.713 24.4375C177.713 25.4062 178.26 25.8906 179.354 25.8906C180.729 23.5156 182.823 21.5469 185.635 19.9844C188.479 18.4219 191.698 17.6406 195.291 17.6406C200.698 17.6406 205.088 18.9687 208.463 21.625C212.713 24.9688 214.838 30.1562 214.838 37.1875L214.698 46.7969ZM249.062 50.8281C249.375 51.1406 249.75 51.2969 250.188 51.2969C250.875 51.2969 251.344 50.8125 251.594 49.8438C251.844 48.8438 251.969 46.8438 251.969 43.8438V39.0625C251.969 38.2188 251.859 37.625 251.641 37.2812C251.422 36.9375 251.062 36.7656 250.562 36.7656C250.062 36.7656 249.703 36.875 249.484 37.0938V43.375C249.484 45.25 249.344 47.7344 249.062 50.8281ZM250.938 12.4375V16.6094C248.312 16.7656 245.906 17.1719 243.719 17.8281C241.531 18.4531 240.438 19.1875 240.438 20.0312C240.438 20.5313 240.688 20.9375 241.188 21.25C244.625 19.5625 248.266 18.7188 252.109 18.7188C258.984 18.7188 264.609 21.0938 268.984 25.8438C273.391 30.5625 275.594 36.7188 275.594 44.3125C275.594 53.5 272.938 60.4219 267.625 65.0781C262.781 69.3281 256.188 71.4531 247.844 71.4531C239.531 71.4531 233.406 69.8438 229.469 66.625C227.312 64.8438 226.234 62.5312 226.234 59.6875V6.20312C227.734 5.32812 229.531 4.60938 231.625 4.04688C233.75 3.48438 235.891 3.20312 238.047 3.20312C241.641 3.20312 244.609 3.90625 246.953 5.3125C249.609 6.96875 250.938 9.34375 250.938 12.4375ZM389.142 46.7969C389.142 49.0469 389.392 50.8594 389.892 52.2344C390.392 53.6094 391.267 54.6875 392.517 55.4688C392.548 55.625 392.564 55.9219 392.564 56.3594V57.2031C392.564 61.6406 391.22 65.0938 388.533 67.5625C386.158 69.75 383.22 70.8438 379.72 70.8438C377.345 70.8438 375.173 70.2812 373.204 69.1562C371.236 68.0312 369.829 66.4062 368.986 64.2812C367.923 64.2812 367.392 64.7969 367.392 65.8281C367.392 66.7031 367.939 67.6875 369.033 68.7812C367.001 70.1562 363.939 70.8438 359.845 70.8438C354.064 70.8438 349.439 69.2812 345.97 66.1562C342.533 63 340.814 58.6094 340.814 52.9844C340.814 47.3281 342.642 42.9531 346.298 39.8594C349.642 37.0781 353.97 35.6875 359.283 35.6875C361.095 35.6875 362.845 35.8125 364.533 36.0625C365.658 36.2812 366.267 36.4062 366.361 36.4375C366.454 36.125 366.501 35.8594 366.501 35.6406C366.501 34.8281 365.814 34.2812 364.439 34C363.064 33.7188 361.267 33.5781 359.048 33.5781C354.329 33.5781 350.298 34.5312 346.954 36.4375C345.423 33.8438 344.658 30.5625 344.658 26.5938C344.658 24.3438 344.939 22.6719 345.501 21.5781C347.751 20.5469 350.611 19.6406 354.079 18.8594C357.548 18.0469 361.204 17.6406 365.048 17.6406C372.986 17.6406 378.986 19.375 383.048 22.8438C387.111 26.3125 389.142 31.2344 389.142 37.6094V46.7969ZM364.814 49.0938C363.501 49.0938 362.845 49.6875 362.845 50.875C362.845 52 363.611 52.5625 365.142 52.5625C366.204 52.5625 366.986 52.3125 367.486 51.8125C367.986 51.2812 368.236 50.375 368.236 49.0938C368.236 49.0938 367.095 49.0938 364.814 49.0938ZM476.663 46.7969C476.663 49.0781 476.913 50.9375 477.413 52.375C477.913 53.8125 478.788 54.9219 480.038 55.7031C480.069 55.8594 480.085 56.125 480.085 56.5V57.2031C480.085 61.4844 478.835 64.8281 476.335 67.2344C473.835 69.6406 470.601 70.8438 466.632 70.8438C462.694 70.8438 459.522 69.7656 457.116 67.6094C454.272 65.1094 452.851 61.2812 452.851 56.125V41.3125C452.851 39.2188 452.163 38.1719 450.788 38.1719C450.257 38.1719 449.835 38.2969 449.522 38.5469L450.366 45.5312V56.125C450.366 60.375 451.069 63.5938 452.476 65.7812C450.976 67.375 449.101 68.625 446.851 69.5312C444.632 70.4062 442.366 70.8438 440.054 70.8438C436.304 70.8438 433.397 69.9375 431.335 68.125C428.835 65.9375 427.585 62.4844 427.585 57.7656V41.3125C427.585 39.2188 426.897 38.1719 425.522 38.1719C424.991 38.1719 424.569 38.2969 424.257 38.5469L425.101 45.5312V57.9531C425.101 61.4531 425.569 64.1562 426.507 66.0625C423.444 69.2188 419.147 70.7969 413.616 70.7969C410.335 70.7969 407.569 69.9688 405.319 68.3125C402.726 66.4062 401.429 63.8438 401.429 60.625V38.2188C399.585 35.625 398.663 32.4375 398.663 28.6562C398.663 24.8438 399.585 21.5469 401.429 18.7656H412.726C414.944 18.7656 416.835 19.5938 418.397 21.25C417.022 22.5312 416.335 23.5938 416.335 24.4375C416.335 25.4062 416.882 25.8906 417.976 25.8906C419.351 23.5156 421.241 21.625 423.647 20.2188C426.46 18.625 429.757 17.8281 433.538 17.8281C436.413 17.8281 438.929 18.4375 441.085 19.6562C443.272 20.875 444.897 22.2812 445.96 23.875C447.429 21.875 449.335 20.375 451.679 19.375C454.054 18.3438 456.522 17.8281 459.085 17.8281C464.741 17.8281 469.132 19.5781 472.257 23.0781C475.319 26.5781 476.851 31.375 476.851 37.4688L476.663 46.7969Z" fill="#E03F72"/>
<path d="M306.922 71.4531C315.578 71.4531 322.406 69.0469 327.406 64.2344C332.531 59.3906 335.094 52.7656 335.094 44.3594C335.094 35.9219 332.453 29.2344 327.172 24.2969C322.297 19.7031 316.125 17.4062 308.656 17.4062C301.188 17.4062 295.203 19.4688 290.703 23.5938C286.172 27.6875 283.906 32.7344 283.906 38.7344C283.906 44.0781 285.766 48.1094 289.484 50.8281C292.922 53.3906 297.609 54.6719 303.547 54.6719C307.984 54.6719 311.734 53.75 314.797 51.9062C315.047 52.0938 315.172 52.4375 315.172 52.9375C315.172 53.875 313.938 54.7344 311.469 55.5156C309 56.3594 306.203 56.7812 303.078 56.7812C299.922 56.7812 297.062 56.3906 294.5 55.6094C291.906 54.7969 289.828 53.8438 288.266 52.75C287.516 53.4062 286.922 54.625 286.484 56.4062C286.016 58.1562 285.781 59.7656 285.781 61.2344C285.781 62.6719 285.922 63.9531 286.203 65.0781C288.641 67.1406 291.141 68.6094 293.703 69.4844C297.328 70.7969 301.734 71.4531 306.922 71.4531ZM307.531 39.7188C305.969 39.7188 305.188 39.125 305.188 37.9375C305.188 36.8125 306.016 36.25 307.672 36.25C309.328 36.25 310.281 37.1406 310.531 38.9219C309.656 39.4531 308.656 39.7188 307.531 39.7188Z" fill="#E03F72"/>
<path d="M79.1494 7.35545C79.5173 5.80809 81.4567 5.28843 82.549 6.44454L95.8501 20.5231C96.8902 21.6239 96.3768 23.4365 94.9139 23.8284L77.133 28.5928C75.6701 28.9848 74.3193 27.6718 74.6696 26.1984L79.1494 7.35545Z" fill="#E03F72"/>
<path d="M106.486 6.44456C107.579 5.28845 109.518 5.80811 109.886 7.35547L114.366 26.1984C114.716 27.6718 113.365 28.9848 111.902 28.5928L94.1213 23.8285C92.6585 23.4365 92.1451 21.624 93.1852 20.5231L106.486 6.44456Z" fill="#E03F72"/>
<path d="M299.427 53.0863C301 53.3179 301.687 55.2046 300.63 56.3935L287.765 70.871C286.759 72.0031 284.908 71.6497 284.39 70.2265L278.094 52.9285C277.576 51.5054 278.767 50.0452 280.265 50.2658L299.427 53.0863Z" fill="#E03F72"/>
</g>
<defs>
<clipPath id="clip0_1066_127">
<rect width="482" height="94" fill="white"/>
</clipPath>
</defs>
</svg>
