<svg width="128" height="128" viewBox="0 0 128 128" fill="none" xmlns="http://www.w3.org/2000/svg">
<g clip-path="url(#clip0_1046_4)">
<g filter="url(#filter0_d_1046_4)">
<mask id="path-2-outside-1_1046_4" maskUnits="userSpaceOnUse" x="7.47035" y="17.5812" width="115.59" height="90.9881" fill="black">
<rect fill="white" x="7.47035" y="17.5812" width="115.59" height="90.9881"/>
<path d="M44.8135 98.4076C41.227 98.1009 38.2558 97.5676 35.8999 96.8074C32.6322 95.8204 30.2852 94.521 28.8587 92.9092C26.0123 85.2541 23.725 76.9392 21.997 67.9644C19.5954 55.5428 18.2622 42.8214 17.9975 29.8004C19.87 27.5023 22.3052 25.811 25.303 24.7266C28.304 23.6051 31.5793 23.1961 35.1288 23.4996C40.4531 23.9549 44.5443 25.3289 47.4023 27.6218C50.2973 29.9178 51.5836 32.9515 51.2611 36.7229C50.762 39.5108 50.1692 43.6129 49.4826 49.0292C48.833 54.4486 48.3201 59.3583 47.9438 63.7583C47.8395 64.9784 47.8682 65.9493 48.03 66.6707C48.2319 67.3584 48.7211 67.7354 49.4976 67.8018C49.7934 67.8271 50.1679 67.8033 50.621 67.7303C50.6125 67.3944 50.6414 66.8382 50.7078 66.0617L50.8738 64.1205C51.3322 58.7593 52.0451 52.6003 53.0124 45.6438C53.9828 38.6502 54.8738 33.4563 55.6855 30.0619C59.2272 28.2791 63.272 27.5821 67.8199 27.9709C72.3677 28.3598 75.9745 29.3013 78.64 30.7956C81.835 32.6331 83.3968 35.0572 83.3256 38.0679C82.8309 41.6756 82.1746 45.2136 81.3566 48.6819C80.5756 52.1534 79.6378 56.1515 78.5432 60.6763C77.4487 65.201 76.7458 68.195 76.4344 69.6582C76.7176 69.8313 77.0995 69.9385 77.5801 69.9796C78.0608 70.0207 78.5203 69.8738 78.9587 69.5388C79.397 69.2038 79.8056 68.3449 80.1846 66.962C81.8366 61.1441 83.3122 54.9945 84.6113 48.5133C85.9135 41.995 86.8842 36.3051 87.5234 31.4434C91.1211 29.4419 95.9148 28.6972 101.905 29.2094C106.748 29.6235 110.502 31.248 113.164 34.0828C115.83 36.8806 116.978 40.4426 116.608 44.7686C116.362 47.6526 114.347 55.0969 110.564 67.1015C108.609 73.4149 106.789 78.8087 105.103 83.2829C103.42 87.7201 102.092 90.8283 101.121 92.6074C99.1006 96.1964 96.3186 98.6774 92.7747 100.05C89.2709 101.39 84.8938 101.835 79.6435 101.386C77.5359 101.206 75.1225 100.683 72.4031 99.8169C69.7208 98.9544 67.6918 98.0733 66.3162 97.1735C65.6747 95.9641 64.9914 94.1551 64.2662 91.7467C63.541 89.3383 63.1181 87.533 62.9974 86.3308C61.5522 86.2445 60.7648 86.9593 60.6352 88.4753C60.534 89.6585 60.9206 91.889 61.7949 95.1668C57.647 97.9407 51.9866 99.0209 44.8135 98.4076Z"/>
</mask>
<path d="M44.8135 98.4076C41.227 98.1009 38.2558 97.5676 35.8999 96.8074C32.6322 95.8204 30.2852 94.521 28.8587 92.9092C26.0123 85.2541 23.725 76.9392 21.997 67.9644C19.5954 55.5428 18.2622 42.8214 17.9975 29.8004C19.87 27.5023 22.3052 25.811 25.303 24.7266C28.304 23.6051 31.5793 23.1961 35.1288 23.4996C40.4531 23.9549 44.5443 25.3289 47.4023 27.6218C50.2973 29.9178 51.5836 32.9515 51.2611 36.7229C50.762 39.5108 50.1692 43.6129 49.4826 49.0292C48.833 54.4486 48.3201 59.3583 47.9438 63.7583C47.8395 64.9784 47.8682 65.9493 48.03 66.6707C48.2319 67.3584 48.7211 67.7354 49.4976 67.8018C49.7934 67.8271 50.1679 67.8033 50.621 67.7303C50.6125 67.3944 50.6414 66.8382 50.7078 66.0617L50.8738 64.1205C51.3322 58.7593 52.0451 52.6003 53.0124 45.6438C53.9828 38.6502 54.8738 33.4563 55.6855 30.0619C59.2272 28.2791 63.272 27.5821 67.8199 27.9709C72.3677 28.3598 75.9745 29.3013 78.64 30.7956C81.835 32.6331 83.3968 35.0572 83.3256 38.0679C82.8309 41.6756 82.1746 45.2136 81.3566 48.6819C80.5756 52.1534 79.6378 56.1515 78.5432 60.6763C77.4487 65.201 76.7458 68.195 76.4344 69.6582C76.7176 69.8313 77.0995 69.9385 77.5801 69.9796C78.0608 70.0207 78.5203 69.8738 78.9587 69.5388C79.397 69.2038 79.8056 68.3449 80.1846 66.962C81.8366 61.1441 83.3122 54.9945 84.6113 48.5133C85.9135 41.995 86.8842 36.3051 87.5234 31.4434C91.1211 29.4419 95.9148 28.6972 101.905 29.2094C106.748 29.6235 110.502 31.248 113.164 34.0828C115.83 36.8806 116.978 40.4426 116.608 44.7686C116.362 47.6526 114.347 55.0969 110.564 67.1015C108.609 73.4149 106.789 78.8087 105.103 83.2829C103.42 87.7201 102.092 90.8283 101.121 92.6074C99.1006 96.1964 96.3186 98.6774 92.7747 100.05C89.2709 101.39 84.8938 101.835 79.6435 101.386C77.5359 101.206 75.1225 100.683 72.4031 99.8169C69.7208 98.9544 67.6918 98.0733 66.3162 97.1735C65.6747 95.9641 64.9914 94.1551 64.2662 91.7467C63.541 89.3383 63.1181 87.533 62.9974 86.3308C61.5522 86.2445 60.7648 86.9593 60.6352 88.4753C60.534 89.6585 60.9206 91.889 61.7949 95.1668C57.647 97.9407 51.9866 99.0209 44.8135 98.4076Z" fill="url(#paint0_linear_1046_4)"/>
<path d="M35.8999 96.8074L37.1281 93.0007L37.0924 92.9892L37.0565 92.9783L35.8999 96.8074ZM28.8587 92.9092L25.1095 94.3033L25.3693 95.002L25.8633 95.5602L28.8587 92.9092ZM21.997 67.9644L25.9249 67.2081L25.9243 67.2051L21.997 67.9644ZM17.9975 29.8004L14.8966 27.2736L13.9685 28.4127L13.9984 29.8816L17.9975 29.8004ZM25.303 24.7266L26.6637 28.488L26.6835 28.4808L26.7032 28.4735L25.303 24.7266ZM47.4023 27.6218L44.8993 30.7418L44.908 30.7488L44.9168 30.7558L47.4023 27.6218ZM51.2611 36.7229L55.1985 37.4278L55.2309 37.2468L55.2466 37.0637L51.2611 36.7229ZM49.4826 49.0292L45.5143 48.5262L45.5126 48.5396L45.511 48.5531L49.4826 49.0292ZM48.03 66.6707L44.1269 67.5459L44.1554 67.6729L44.192 67.7977L48.03 66.6707ZM50.621 67.7303L51.257 71.6794L54.7084 71.1236L54.6197 67.6289L50.621 67.7303ZM53.0124 45.6438L56.9742 46.1946L56.9744 46.1935L53.0124 45.6438ZM55.6855 30.0619L53.887 26.4891L52.2273 27.3245L51.7952 29.1317L55.6855 30.0619ZM78.64 30.7956L80.6342 27.3281L80.6152 27.3172L80.596 27.3064L78.64 30.7956ZM83.3256 38.0679L87.2885 38.6113L87.3192 38.3879L87.3245 38.1625L83.3256 38.0679ZM81.3566 48.6819L77.4634 47.7637L77.4586 47.7838L77.4541 47.8039L81.3566 48.6819ZM76.4344 69.6582L72.522 68.8257L71.933 71.5938L74.3473 73.0705L76.4344 69.6582ZM78.9587 69.5388L76.5299 66.3606L78.9587 69.5388ZM80.1846 66.962L76.3367 65.8693L76.3317 65.8871L76.3268 65.9048L80.1846 66.962ZM84.6113 48.5133L88.5333 49.2994L88.5338 49.2969L84.6113 48.5133ZM87.5234 31.4434L85.5787 27.948L83.8199 28.9265L83.5575 30.922L87.5234 31.4434ZM113.164 34.0828L110.249 36.8213L110.258 36.8318L110.268 36.8421L113.164 34.0828ZM110.564 67.1015L106.749 65.8994L106.746 65.9088L106.743 65.9182L110.564 67.1015ZM105.103 83.2829L108.843 84.7014L108.846 84.6935L105.103 83.2829ZM101.121 92.6074L104.607 94.5695L104.619 94.547L104.631 94.5245L101.121 92.6074ZM92.7747 100.05L94.2028 103.787L94.2113 103.784L94.2197 103.78L92.7747 100.05ZM72.4031 99.8169L71.1787 103.625L71.1898 103.628L72.4031 99.8169ZM66.3162 97.1735L62.7825 99.0478L63.2649 99.9574L64.1266 100.521L66.3162 97.1735ZM62.9974 86.3308L66.9774 85.9313L66.637 82.5411L63.2359 82.338L62.9974 86.3308ZM61.7949 95.1668L64.0185 98.4918L66.3973 96.9009L65.6598 94.1359L61.7949 95.1668ZM45.1543 94.4222C41.7463 94.1308 39.0982 93.6363 37.1281 93.0007L34.6716 100.614C37.4133 101.499 40.7077 102.071 44.4727 102.393L45.1543 94.4222ZM37.0565 92.9783C34.1202 92.0913 32.5797 91.0781 31.8541 90.2582L25.8633 95.5602C27.9906 97.9638 31.1443 99.5494 34.7432 100.637L37.0565 92.9783ZM32.6079 91.5151C29.847 84.0901 27.6159 75.9909 25.9249 67.2081L18.0692 68.7207C19.8341 77.8874 22.1775 86.4181 25.1095 94.3033L32.6079 91.5151ZM25.9243 67.2051C23.5671 55.0135 22.2569 42.5192 21.9967 29.7191L13.9984 29.8816C14.2675 43.1237 15.6236 56.0721 18.0697 68.7237L25.9243 67.2051ZM21.0984 32.3271C22.4789 30.6329 24.2938 29.3453 26.6637 28.488L23.9423 20.9651C20.3166 22.2767 17.2612 24.3717 14.8966 27.2736L21.0984 32.3271ZM26.7032 28.4735C29.0892 27.5818 31.7626 27.2264 34.788 27.4851L35.4696 19.5142C31.396 19.1659 27.5188 19.6284 23.9028 20.9796L26.7032 28.4735ZM34.788 27.4851C39.6657 27.9022 42.8836 29.1248 44.8993 30.7418L49.9054 24.5017C46.205 21.5331 41.2406 20.0076 35.4696 19.5142L34.788 27.4851ZM44.9168 30.7558C46.7303 32.1941 47.4872 33.9079 47.2757 36.3821L55.2466 37.0637C55.68 31.9951 53.8644 27.6415 49.8879 24.4878L44.9168 30.7558ZM47.3237 36.018C46.8062 38.9087 46.2032 43.0919 45.5143 48.5262L53.4508 49.5322C54.1351 44.1339 54.7178 40.1129 55.1985 37.4278L47.3237 36.018ZM45.511 48.5531C44.8572 54.0076 44.3392 58.9633 43.9584 63.4175L51.9293 64.0991C52.3009 59.7533 52.8087 54.8897 53.4542 49.5053L45.511 48.5531ZM43.9584 63.4175C43.8389 64.8149 43.8364 66.2501 44.1269 67.5459L51.9331 65.7956C51.9001 65.6484 51.8401 65.1419 51.9293 64.0991L43.9584 63.4175ZM44.192 67.7977C44.4915 68.8177 45.0894 69.8535 46.1065 70.6375C47.0995 71.4028 48.2034 71.7058 49.1568 71.7873L49.8383 63.8164C50.0153 63.8315 50.4863 63.9128 50.9902 64.3011C51.5181 64.708 51.7704 65.2115 51.868 65.5438L44.192 67.7977ZM49.1568 71.7873C49.9046 71.8512 50.636 71.7794 51.257 71.6794L49.985 63.7812C49.8582 63.8016 49.781 63.8088 49.7461 63.811C49.7298 63.812 49.7293 63.8116 49.7428 63.8116C49.756 63.8116 49.7888 63.8122 49.8383 63.8164L49.1568 71.7873ZM54.6197 67.6289C54.6197 67.6289 54.6195 67.6206 54.6196 67.6026C54.6196 67.5849 54.6199 67.5605 54.6206 67.5286C54.6221 67.4639 54.6252 67.3784 54.6309 67.269C54.6424 67.0488 54.6625 66.7624 54.6933 66.4025L46.7224 65.7209C46.6554 66.5041 46.6077 67.2541 46.6223 67.8317L54.6197 67.6289ZM54.6933 66.4025L54.8593 64.4613L46.8884 63.7798L46.7224 65.7209L54.6933 66.4025ZM54.8593 64.4613C55.3102 59.1876 56.0139 53.1011 56.9742 46.1946L49.0505 45.0929C48.0762 52.0995 47.3543 58.3309 46.8884 63.7798L54.8593 64.4613ZM56.9744 46.1935C57.9411 39.2265 58.8111 34.1902 59.5758 30.9922L51.7952 29.1317C50.9366 32.7224 50.0244 38.0739 49.0503 45.094L56.9744 46.1935ZM57.484 33.6348C60.2696 32.2326 63.5551 31.6209 67.4791 31.9564L68.1606 23.9855C62.9889 23.5433 58.1849 24.3256 53.887 26.4891L57.484 33.6348ZM67.4791 31.9564C71.7147 32.3185 74.6987 33.1718 76.6841 34.2848L80.596 27.3064C77.2502 25.4309 73.0207 24.401 68.1606 23.9855L67.4791 31.9564ZM76.6458 34.263C78.9078 35.564 79.355 36.7792 79.3267 37.9733L87.3245 38.1625C87.4387 33.3351 84.7621 29.7022 80.6342 27.3281L76.6458 34.263ZM79.3627 37.5245C78.8849 41.009 78.2516 44.4218 77.4634 47.7637L85.2498 49.6001C86.0976 46.0054 86.7769 42.3422 87.2885 38.6113L79.3627 37.5245ZM77.4541 47.8039C76.679 51.2493 75.7463 55.2259 74.6554 59.7358L82.4311 61.6167C83.5292 57.0771 84.4721 53.0574 85.259 49.5599L77.4541 47.8039ZM74.6554 59.7358C73.5634 64.2501 72.8469 67.2988 72.522 68.8257L80.3468 70.4906C80.6446 69.0911 81.334 66.1519 82.4311 61.6167L74.6554 59.7358ZM74.3473 73.0705C75.3451 73.6808 76.4 73.8933 77.2394 73.965L77.9209 65.9941C77.8793 65.9906 77.9177 65.9902 78.0137 66.0171C78.1102 66.0442 78.2953 66.1075 78.5216 66.2459L74.3473 73.0705ZM77.2394 73.965C78.854 74.1031 80.28 73.5633 81.3874 72.717L76.5299 66.3606C76.6235 66.289 76.8022 66.1749 77.067 66.0903C77.3402 66.0029 77.6351 65.9697 77.9209 65.9941L77.2394 73.965ZM81.3874 72.717C82.3537 71.9786 82.8999 71.0051 83.2059 70.3618C83.5485 69.6417 83.8185 68.836 84.0424 68.0191L76.3268 65.9048C76.252 66.1778 76.1827 66.3992 76.1209 66.5751C76.0584 66.753 76.0104 66.8649 75.9818 66.9249C75.9511 66.9894 75.9591 66.9599 76.0194 66.8749C76.0752 66.7962 76.2348 66.5861 76.5299 66.3606L81.3874 72.717ZM84.0325 68.0546C85.7157 62.1268 87.2154 55.8744 88.5333 49.2994L80.6893 47.7271C79.409 54.1147 77.9575 60.1614 76.3367 65.8693L84.0325 68.0546ZM88.5338 49.2969C89.8477 42.72 90.8353 36.9389 91.4893 31.9648L83.5575 30.922C82.9331 35.6713 81.9793 41.2701 80.6888 47.7296L88.5338 49.2969ZM89.4681 34.9389C92.1176 33.4648 96.021 32.7209 101.564 33.1948L102.245 25.2239C95.8087 24.6735 90.1245 25.4189 85.5787 27.948L89.4681 34.9389ZM101.564 33.1948C105.68 33.5468 108.418 34.8725 110.249 36.8213L116.08 31.3443C112.585 27.6235 107.816 25.7002 102.245 25.2239L101.564 33.1948ZM110.268 36.8421C112.041 38.7027 112.908 41.0864 112.623 44.4278L120.594 45.1094C121.048 39.7987 119.619 35.0586 116.06 31.3235L110.268 36.8421ZM112.623 44.4278C112.534 45.4639 112.066 47.72 111.051 51.4699C110.064 55.1171 108.633 59.9211 106.749 65.8994L114.38 68.3036C116.278 62.2772 117.746 57.3569 118.773 53.5597C119.773 49.8653 120.436 46.9573 120.594 45.1094L112.623 44.4278ZM106.743 65.9182C104.804 72.1816 103.009 77.4952 101.359 81.8723L108.846 84.6935C110.568 80.1222 112.415 74.6482 114.385 68.2848L106.743 65.9182ZM101.362 81.8643C99.6817 86.2959 98.4373 89.1754 97.6101 90.6904L104.631 94.5245C105.747 92.4811 107.157 89.1443 108.843 84.7014L101.362 81.8643ZM97.635 90.6454C96.0289 93.4989 93.9345 95.3114 91.3297 96.3205L94.2197 103.78C98.7027 102.043 102.172 98.894 104.607 94.5695L97.635 90.6454ZM91.3466 96.314C88.5865 97.369 84.8615 97.8173 79.9842 97.4003L79.3027 105.371C84.9262 105.852 89.9553 105.41 94.2028 103.787L91.3466 96.314ZM79.9842 97.4003C78.2554 97.2525 76.1437 96.8099 73.6165 96.0054L71.1898 103.628C74.1012 104.555 76.8164 105.159 79.3027 105.371L79.9842 97.4003ZM73.6276 96.009C71.0805 95.1899 69.443 94.439 68.5057 93.826L64.1266 100.521C65.9406 101.708 68.3611 102.719 71.1787 103.625L73.6276 96.009ZM69.8499 95.2992C69.3923 94.4365 68.7976 92.9225 68.0963 90.5934L60.436 92.9C61.1851 95.3878 61.9571 97.4917 62.7825 99.0478L69.8499 95.2992ZM68.0963 90.5934C67.3837 88.2267 67.0575 86.7292 66.9774 85.9313L59.0174 86.7304C59.1786 88.3368 59.6983 90.4499 60.436 92.9L68.0963 90.5934ZM63.2359 82.338C61.8382 82.2545 60.0795 82.5286 58.6343 83.8406C57.2247 85.1203 56.7637 86.8019 56.6497 88.1345L64.6206 88.8161C64.6363 88.6327 64.6339 89.1989 64.0116 89.7638C63.3538 90.361 62.7114 90.3209 62.7589 90.3237L63.2359 82.338ZM56.6497 88.1345C56.5544 89.2499 56.6989 90.5119 56.908 91.7186C57.1289 92.993 57.4757 94.4945 57.93 96.1977L65.6598 94.1359C65.2398 92.5613 64.9562 91.3086 64.7905 90.3525C64.708 89.8763 64.6602 89.505 64.6369 89.2258C64.6125 88.9343 64.6209 88.8133 64.6206 88.8161L56.6497 88.1345ZM59.5713 91.8418C56.4496 93.9294 51.812 94.9914 45.1543 94.4222L44.4727 102.393C52.1611 103.05 58.8445 101.952 64.0185 98.4918L59.5713 91.8418Z" fill="white" mask="url(#path-2-outside-1_1046_4)"/>
</g>
</g>
<defs>
<filter id="filter0_d_1046_4" x="7.36816" y="17.0912" width="115.454" height="92.0214" filterUnits="userSpaceOnUse" color-interpolation-filters="sRGB">
<feFlood flood-opacity="0" result="BackgroundImageFix"/>
<feColorMatrix in="SourceAlpha" type="matrix" values="0 0 0 0 0 0 0 0 0 0 0 0 0 0 0 0 0 0 127 0" result="hardAlpha"/>
<feOffset/>
<feGaussianBlur stdDeviation="2.5"/>
<feComposite in2="hardAlpha" operator="out"/>
<feColorMatrix type="matrix" values="0 0 0 0 0 0 0 0 0 0 0 0 0 0 0 0 0 0 0.25 0"/>
<feBlend mode="normal" in2="BackgroundImageFix" result="effect1_dropShadow_1046_4"/>
<feBlend mode="normal" in="SourceGraphic" in2="effect1_dropShadow_1046_4" result="shape"/>
</filter>
<linearGradient id="paint0_linear_1046_4" x1="140.5" y1="-9.5" x2="31" y2="93.5" gradientUnits="userSpaceOnUse">
<stop stop-color="#2FB58B"/>
<stop offset="0.485" stop-color="#9EBB7A"/>
<stop offset="1" stop-color="#EEC06A"/>
</linearGradient>
<clipPath id="clip0_1046_4">
<rect width="128" height="128" rx="40" fill="white"/>
</clipPath>
</defs>
</svg>
