<svg width="128" height="128" viewBox="0 0 128 128" fill="none" xmlns="http://www.w3.org/2000/svg">
<g clip-path="url(#clip0_1046_4)">
<g filter="url(#filter0_d_1046_4)">
<mask id="path-2-outside-1_1046_4" maskUnits="userSpaceOnUse" x="10.715" y="20.8259" width="109.1" height="84.4987" fill="black">
<rect fill="white" x="10.715" y="20.8259" width="109.1" height="84.4987"/>
<path d="M44.8135 98.4076C41.227 98.1009 38.2558 97.5676 35.8999 96.8074C32.6322 95.8204 30.2852 94.521 28.8587 92.9092C26.0123 85.2541 23.725 76.9392 21.997 67.9644C19.5954 55.5428 18.2622 42.8214 17.9975 29.8004C19.87 27.5023 22.3052 25.811 25.303 24.7266C28.304 23.6051 31.5793 23.1961 35.1288 23.4996C40.4531 23.9549 44.5443 25.3289 47.4023 27.6218C50.2973 29.9178 51.5836 32.9515 51.2611 36.7229C50.762 39.5108 50.1692 43.6129 49.4826 49.0292C48.833 54.4486 48.3201 59.3583 47.9438 63.7583C47.8395 64.9784 47.8682 65.9493 48.03 66.6707C48.2319 67.3584 48.7211 67.7354 49.4976 67.8018C49.7934 67.8271 50.1679 67.8033 50.621 67.7303C50.6125 67.3944 50.6414 66.8382 50.7078 66.0617L50.8738 64.1205C51.3322 58.7593 52.0451 52.6003 53.0124 45.6438C53.9828 38.6502 54.8738 33.4563 55.6855 30.0619C59.2272 28.2791 63.272 27.5821 67.8199 27.9709C72.3677 28.3598 75.9745 29.3013 78.64 30.7956C81.835 32.6331 83.3968 35.0572 83.3256 38.0679C82.8309 41.6756 82.1746 45.2136 81.3566 48.6819C80.5756 52.1534 79.6378 56.1515 78.5432 60.6763C77.4487 65.201 76.7458 68.195 76.4344 69.6582C76.7176 69.8313 77.0995 69.9385 77.5801 69.9796C78.0608 70.0207 78.5203 69.8738 78.9587 69.5388C79.397 69.2038 79.8056 68.3449 80.1846 66.962C81.8366 61.1441 83.3122 54.9945 84.6113 48.5133C85.9135 41.995 86.8842 36.3051 87.5234 31.4434C91.1211 29.4419 95.9148 28.6972 101.905 29.2094C106.748 29.6235 110.502 31.248 113.164 34.0828C115.83 36.8806 116.978 40.4426 116.608 44.7686C116.362 47.6526 114.347 55.0969 110.564 67.1015C108.609 73.4149 106.789 78.8087 105.103 83.2829C103.42 87.7201 102.092 90.8283 101.121 92.6074C99.1006 96.1964 96.3186 98.6774 92.7747 100.05C89.2709 101.39 84.8938 101.835 79.6435 101.386C77.5359 101.206 75.1225 100.683 72.4031 99.8169C69.7208 98.9544 67.6918 98.0733 66.3162 97.1735C65.6747 95.9641 64.9914 94.1551 64.2662 91.7467C63.541 89.3383 63.1181 87.533 62.9974 86.3308C61.5522 86.2445 60.7648 86.9593 60.6352 88.4753C60.534 89.6585 60.9206 91.889 61.7949 95.1668C57.647 97.9407 51.9866 99.0209 44.8135 98.4076Z"/>
</mask>
<path d="M44.8135 98.4076C41.227 98.1009 38.2558 97.5676 35.8999 96.8074C32.6322 95.8204 30.2852 94.521 28.8587 92.9092C26.0123 85.2541 23.725 76.9392 21.997 67.9644C19.5954 55.5428 18.2622 42.8214 17.9975 29.8004C19.87 27.5023 22.3052 25.811 25.303 24.7266C28.304 23.6051 31.5793 23.1961 35.1288 23.4996C40.4531 23.9549 44.5443 25.3289 47.4023 27.6218C50.2973 29.9178 51.5836 32.9515 51.2611 36.7229C50.762 39.5108 50.1692 43.6129 49.4826 49.0292C48.833 54.4486 48.3201 59.3583 47.9438 63.7583C47.8395 64.9784 47.8682 65.9493 48.03 66.6707C48.2319 67.3584 48.7211 67.7354 49.4976 67.8018C49.7934 67.8271 50.1679 67.8033 50.621 67.7303C50.6125 67.3944 50.6414 66.8382 50.7078 66.0617L50.8738 64.1205C51.3322 58.7593 52.0451 52.6003 53.0124 45.6438C53.9828 38.6502 54.8738 33.4563 55.6855 30.0619C59.2272 28.2791 63.272 27.5821 67.8199 27.9709C72.3677 28.3598 75.9745 29.3013 78.64 30.7956C81.835 32.6331 83.3968 35.0572 83.3256 38.0679C82.8309 41.6756 82.1746 45.2136 81.3566 48.6819C80.5756 52.1534 79.6378 56.1515 78.5432 60.6763C77.4487 65.201 76.7458 68.195 76.4344 69.6582C76.7176 69.8313 77.0995 69.9385 77.5801 69.9796C78.0608 70.0207 78.5203 69.8738 78.9587 69.5388C79.397 69.2038 79.8056 68.3449 80.1846 66.962C81.8366 61.1441 83.3122 54.9945 84.6113 48.5133C85.9135 41.995 86.8842 36.3051 87.5234 31.4434C91.1211 29.4419 95.9148 28.6972 101.905 29.2094C106.748 29.6235 110.502 31.248 113.164 34.0828C115.83 36.8806 116.978 40.4426 116.608 44.7686C116.362 47.6526 114.347 55.0969 110.564 67.1015C108.609 73.4149 106.789 78.8087 105.103 83.2829C103.42 87.7201 102.092 90.8283 101.121 92.6074C99.1006 96.1964 96.3186 98.6774 92.7747 100.05C89.2709 101.39 84.8938 101.835 79.6435 101.386C77.5359 101.206 75.1225 100.683 72.4031 99.8169C69.7208 98.9544 67.6918 98.0733 66.3162 97.1735C65.6747 95.9641 64.9914 94.1551 64.2662 91.7467C63.541 89.3383 63.1181 87.533 62.9974 86.3308C61.5522 86.2445 60.7648 86.9593 60.6352 88.4753C60.534 89.6585 60.9206 91.889 61.7949 95.1668C57.647 97.9407 51.9866 99.0209 44.8135 98.4076Z" fill="url(#paint0_linear_1046_4)"/>
<path d="M35.8999 96.8074L36.2069 95.8557L36.198 95.8529L36.189 95.8502L35.8999 96.8074ZM28.8587 92.9092L27.9214 93.2577L27.9864 93.4324L28.1099 93.572L28.8587 92.9092ZM21.997 67.9644L22.979 67.7753L22.9788 67.7746L21.997 67.9644ZM17.9975 29.8004L17.2223 29.1687L16.9903 29.4534L16.9977 29.8207L17.9975 29.8004ZM25.303 24.7266L25.6432 25.667L25.6531 25.6633L25.303 24.7266ZM47.4023 27.6218L46.7766 28.4018L46.7809 28.4053L47.4023 27.6218ZM51.2611 36.7229L52.2455 36.8991L52.2536 36.8539L52.2575 36.8081L51.2611 36.7229ZM49.4826 49.0292L48.4905 48.9034L48.4897 48.9102L49.4826 49.0292ZM48.03 66.6707L47.0542 66.8895L47.0613 66.9213L47.0705 66.9525L48.03 66.6707ZM50.621 67.7303L50.78 68.7176L51.6429 68.5786L51.6207 67.7049L50.621 67.7303ZM53.0124 45.6438L54.0028 45.7815L54.0029 45.7812L53.0124 45.6438ZM55.6855 30.0619L55.2359 29.1687L54.821 29.3776L54.7129 29.8294L55.6855 30.0619ZM78.64 30.7956L79.1386 29.9287L79.129 29.9233L78.64 30.7956ZM83.3256 38.0679L84.3163 38.2037L84.324 38.1479L84.3253 38.0915L83.3256 38.0679ZM81.3566 48.6819L80.3832 48.4523L80.381 48.4624L81.3566 48.6819ZM76.4344 69.6582L75.4563 69.45L75.3091 70.1421L75.9126 70.5112L76.4344 69.6582ZM78.9587 69.5388L78.3515 68.7442L78.9587 69.5388ZM80.1846 66.962L79.2226 66.6888L79.2201 66.6977L80.1846 66.962ZM84.6113 48.5133L85.5918 48.7098L85.5919 48.7092L84.6113 48.5133ZM87.5234 31.4434L87.0372 30.5696L86.5975 30.8142L86.5319 31.3131L87.5234 31.4434ZM113.164 34.0828L112.435 34.7675L112.44 34.7726L113.164 34.0828ZM110.564 67.1015L109.611 66.8009L109.609 66.8057L110.564 67.1015ZM105.103 83.2829L106.038 83.6375L106.038 83.6355L105.103 83.2829ZM101.121 92.6074L101.992 93.098L101.998 93.0867L101.121 92.6074ZM92.7747 100.05L93.1317 100.985L93.1359 100.983L92.7747 100.05ZM72.4031 99.8169L72.097 100.769L72.0998 100.77L72.4031 99.8169ZM66.3162 97.1735L65.4327 97.6421L65.5534 97.8695L65.7688 98.0104L66.3162 97.1735ZM62.9974 86.3308L63.9924 86.231L63.9073 85.3834L63.057 85.3326L62.9974 86.3308ZM61.7949 95.1668L62.3508 95.998L62.9455 95.6003L62.7611 94.909L61.7949 95.1668ZM44.8987 97.4112C41.3568 97.1084 38.4664 96.5847 36.2069 95.8557L35.5928 97.7591C38.0452 98.5504 41.0972 99.0935 44.7283 99.404L44.8987 97.4112ZM36.189 95.8502C33.0042 94.8881 30.8588 93.6603 29.6076 92.2465L28.1099 93.572C29.7115 95.3817 32.2602 96.7526 35.6107 97.7647L36.189 95.8502ZM29.796 92.5607C26.9709 84.9631 24.6977 76.7021 22.979 67.7753L21.0151 68.1535C22.7523 77.1762 25.0536 85.5451 27.9214 93.2577L29.796 92.5607ZM22.9788 67.7746C20.5883 55.4104 19.2609 42.7459 18.9973 29.78L16.9977 29.8207C17.2635 42.897 18.6024 55.6751 21.0152 68.1542L22.9788 67.7746ZM18.7728 30.432C20.5222 28.285 22.8024 26.6946 25.6432 25.6669L24.9628 23.7862C21.8081 24.9275 19.2178 26.7197 17.2223 29.1687L18.7728 30.432ZM25.6531 25.6633C28.5003 24.5993 31.6251 24.2037 35.0436 24.496L35.214 22.5033C31.5334 22.1886 28.1077 22.6109 24.953 23.7898L25.6531 25.6633ZM35.0436 24.496C40.2563 24.9417 44.1291 26.2779 46.7766 28.4018L48.0281 26.8418C44.9595 24.38 40.65 22.9681 35.214 22.5033L35.0436 24.496ZM46.7809 28.4053C49.4056 30.4869 50.5595 33.1906 50.2648 36.6377L52.2575 36.8081C52.6077 32.7124 51.1891 29.3487 48.0237 26.8383L46.7809 28.4053ZM50.2768 36.5467C49.7731 39.3603 49.1777 43.4827 48.4905 48.9034L50.4746 49.1549C51.1607 43.7432 51.751 39.6613 52.2455 36.8991L50.2768 36.5467ZM48.4897 48.9102C47.839 54.3384 47.3248 59.2596 46.9475 63.6731L48.9402 63.8435C49.3153 59.4571 49.8269 54.5589 50.4755 49.1482L48.4897 48.9102ZM46.9475 63.6731C46.8393 64.9376 46.8603 66.0245 47.0542 66.8895L49.0058 66.452C48.8762 65.8741 48.8397 65.0193 48.9402 63.8435L46.9475 63.6731ZM47.0705 66.9525C47.2211 67.4654 47.5001 67.924 47.9379 68.2613C48.3696 68.594 48.8828 68.7529 49.4124 68.7982L49.5828 66.8055C49.3358 66.7844 49.2163 66.7215 49.1588 66.6772C49.1073 66.6376 49.0408 66.5638 48.9895 66.389L47.0705 66.9525ZM49.4124 68.7982C49.8212 68.8332 50.2849 68.7973 50.78 68.7176L50.462 66.743C50.0508 66.8093 49.7655 66.8211 49.5828 66.8055L49.4124 68.7982ZM51.6207 67.7049C51.6137 67.4294 51.638 66.9217 51.7042 66.1469L49.7115 65.9765C49.6449 66.7546 49.6113 67.3593 49.6214 67.7557L51.6207 67.7049ZM51.7042 66.1469L51.8702 64.2057L49.8775 64.0354L49.7115 65.9765L51.7042 66.1469ZM51.8702 64.2057C52.3267 58.8663 53.0373 52.7255 54.0028 45.7815L52.0219 45.5061C51.0529 52.4751 50.3377 58.6522 49.8775 64.0354L51.8702 64.2057ZM54.0029 45.7812C54.9724 38.7943 55.8582 33.6398 56.6581 30.2945L54.7129 29.8294C53.8895 33.2728 52.9932 38.5062 52.0218 45.5063L54.0029 45.7812ZM56.1351 30.9551C59.4878 29.2674 63.3428 28.5918 67.7347 28.9673L67.9051 26.9746C63.2012 26.5724 58.9666 27.2907 55.2359 29.1687L56.1351 30.9551ZM67.7347 28.9673C72.2045 29.3495 75.6555 30.269 78.1511 31.6679L79.129 29.9233C76.2934 28.3337 72.531 27.3701 67.9051 26.9746L67.7347 28.9673ZM78.1415 31.6625C81.1032 33.3658 82.3864 35.4877 82.3259 38.0443L84.3253 38.0915C84.4073 34.6266 82.5667 31.9003 79.1386 29.9287L78.1415 31.6625ZM82.3349 37.932C81.8444 41.5089 81.1938 45.0156 80.3833 48.4523L82.3299 48.9114C83.1553 45.4115 83.8174 41.8422 84.3163 38.2037L82.3349 37.932ZM80.381 48.4624C79.6014 51.9274 78.6649 55.9201 77.5713 60.4411L79.5152 60.9114C80.6106 56.3829 81.5497 52.3794 82.3322 48.9014L80.381 48.4624ZM77.5713 60.4411C76.4774 64.9633 75.771 67.9709 75.4563 69.45L77.4125 69.8663C77.7205 68.419 78.42 65.4387 79.5152 60.9114L77.5713 60.4411ZM75.9126 70.5112C76.3745 70.7937 76.9246 70.9272 77.495 70.976L77.6653 68.9832C77.2744 68.9498 77.0607 68.869 76.9562 68.8051L75.9126 70.5112ZM77.495 70.976C78.2591 71.0413 78.9602 70.7961 79.5658 70.3333L78.3515 68.7442C78.0804 68.9514 77.8625 69.0001 77.6653 68.9832L77.495 70.976ZM79.5658 70.3333C79.9718 70.0231 80.2671 69.5559 80.4969 69.073C80.7358 68.5709 80.951 67.9491 81.149 67.2263L79.2201 66.6977C79.0393 67.3578 78.8606 67.8569 78.6909 68.2137C78.512 68.5898 78.3839 68.7195 78.3515 68.7442L79.5658 70.3333ZM81.1466 67.2351C82.8064 61.3898 84.288 55.2145 85.5918 48.7098L83.6308 48.3167C82.3364 54.7745 80.8669 60.8984 79.2226 66.6888L81.1466 67.2351ZM85.5919 48.7092C86.8971 42.1763 87.872 36.4635 88.5149 31.5738L86.5319 31.3131C85.8965 36.1466 84.93 41.8138 83.6307 48.3173L85.5919 48.7092ZM88.0096 32.3173C91.3702 30.4476 95.9414 29.7031 101.819 30.2057L101.99 28.213C95.8883 27.6913 90.8719 28.4361 87.0372 30.5696L88.0096 32.3173ZM101.819 30.2057C106.481 30.6043 109.981 32.1541 112.435 34.7674L113.893 33.3982C111.022 30.3419 107.015 28.6427 101.99 28.213L101.819 30.2057ZM112.44 34.7726C114.883 37.3361 115.961 40.6035 115.612 44.6834L117.605 44.8538C117.995 40.2816 116.777 36.4251 113.888 33.393L112.44 34.7726ZM115.612 44.6834C115.497 46.0239 114.956 48.5245 113.947 52.2536C112.945 55.957 111.5 60.8047 109.611 66.8009L111.518 67.402C113.411 61.3937 114.865 56.5169 115.878 52.776C116.883 49.0608 117.473 46.3973 117.605 44.8538L115.612 44.6834ZM109.609 66.8057C107.658 73.1066 105.844 78.4803 104.167 82.9302L106.038 83.6355C107.734 79.1371 109.561 73.7232 111.52 67.3973L109.609 66.8057ZM104.168 82.9282C102.485 87.364 101.179 90.4151 100.243 92.1282L101.998 93.0867C103.006 91.2415 104.354 88.0761 106.038 83.6375L104.168 82.9282ZM100.249 92.1169C98.3327 95.522 95.7226 97.8359 92.4134 99.1179L93.1359 100.983C96.9146 99.5189 99.8686 96.8708 101.992 93.0979L100.249 92.1169ZM92.4177 99.1163C89.0998 100.384 84.8857 100.83 79.7287 100.389L79.5583 102.382C84.9019 102.839 89.442 102.395 93.1317 100.985L92.4177 99.1163ZM79.7287 100.389C77.7158 100.217 75.3778 99.7144 72.7065 98.8641L72.0998 100.77C74.8672 101.651 77.356 102.194 79.5583 102.382L79.7287 100.389ZM72.7092 98.8649C70.0607 98.0133 68.1296 97.1647 66.8636 96.3366L65.7688 98.0104C67.254 98.9818 69.3808 99.8955 72.097 100.769L72.7092 98.8649ZM67.1996 96.7049C66.6041 95.5822 65.9429 93.847 65.2237 91.4584L63.3086 92.035C64.0398 94.4633 64.7453 96.346 65.4327 97.6421L67.1996 96.7049ZM65.2237 91.4584C64.5017 89.0604 64.1029 87.332 63.9924 86.231L62.0024 86.4307C62.1332 87.734 62.5803 89.6162 63.3086 92.035L65.2237 91.4584ZM63.057 85.3326C62.1656 85.2794 61.3074 85.4658 60.6508 86.0618C60.0031 86.6498 59.7159 87.4885 59.6388 88.3901L61.6316 88.5605C61.6841 87.9462 61.8554 87.6694 61.9951 87.5426C62.1259 87.4239 62.3839 87.296 62.9377 87.3291L63.057 85.3326ZM59.6388 88.3901C59.577 89.1126 59.6667 90.0682 59.8639 91.2063C60.0641 92.3613 60.3872 93.7695 60.8287 95.4245L62.7611 94.909C62.3283 93.2862 62.0209 91.9402 61.8346 90.8648C61.6452 89.7724 61.5922 89.0211 61.6316 88.5605L59.6388 88.3901ZM61.239 94.3355C57.3477 96.9379 51.9429 98.0136 44.8987 97.4112L44.7283 99.404C52.0302 100.028 57.9464 98.9435 62.3508 95.998L61.239 94.3355Z" fill="white" mask="url(#path-2-outside-1_1046_4)"/>
</g>
</g>
<defs>
<filter id="filter0_d_1046_4" x="7.36816" y="17.0912" width="115.454" height="92.0214" filterUnits="userSpaceOnUse" color-interpolation-filters="sRGB">
<feFlood flood-opacity="0" result="BackgroundImageFix"/>
<feColorMatrix in="SourceAlpha" type="matrix" values="0 0 0 0 0 0 0 0 0 0 0 0 0 0 0 0 0 0 127 0" result="hardAlpha"/>
<feOffset/>
<feGaussianBlur stdDeviation="2.5"/>
<feComposite in2="hardAlpha" operator="out"/>
<feColorMatrix type="matrix" values="0 0 0 0 0 0 0 0 0 0 0 0 0 0 0 0 0 0 0.25 0"/>
<feBlend mode="normal" in2="BackgroundImageFix" result="effect1_dropShadow_1046_4"/>
<feBlend mode="normal" in="SourceGraphic" in2="effect1_dropShadow_1046_4" result="shape"/>
</filter>
<linearGradient id="paint0_linear_1046_4" x1="140.5" y1="-9.5" x2="31" y2="93.5" gradientUnits="userSpaceOnUse">
<stop stop-color="#2FB58B"/>
<stop offset="0.485" stop-color="#9EBB7A"/>
<stop offset="1" stop-color="#EEC06A"/>
</linearGradient>
<clipPath id="clip0_1046_4">
<rect width="128" height="128" rx="40" fill="white"/>
</clipPath>
</defs>
</svg>
